<?xml version="1.0" encoding="UTF-8" standalone="no"?>
<!-- Created with Inkscape (http://www.inkscape.org/) -->

<svg
   xmlns:dc="http://purl.org/dc/elements/1.1/"
   xmlns:cc="http://creativecommons.org/ns#"
   xmlns:rdf="http://www.w3.org/1999/02/22-rdf-syntax-ns#"
   xmlns:svg="http://www.w3.org/2000/svg"
   xmlns="http://www.w3.org/2000/svg"
   xmlns:sodipodi="http://sodipodi.sourceforge.net/DTD/sodipodi-0.dtd"
   xmlns:inkscape="http://www.inkscape.org/namespaces/inkscape"
   width="291.56357"
   height="207.9054"
   viewBox="0 0 77.142863 55.008305"
   version="1.1"
   id="svg8"
   sodipodi:docname="no_middleman.svg"
   inkscape:version="0.92.4 5da689c313, 2019-01-14">
  <defs
     id="defs2" />
  <sodipodi:namedview
     id="base"
     pagecolor="#ffffff"
     bordercolor="#666666"
     borderopacity="1.0"
     inkscape:pageopacity="0.0"
     inkscape:pageshadow="2"
     inkscape:zoom="1.4142136"
     inkscape:cx="44.434846"
     inkscape:cy="139.05093"
     inkscape:document-units="mm"
     inkscape:current-layer="layer1"
     showgrid="false"
     inkscape:snap-global="false"
     units="px"
     fit-margin-top="0"
     fit-margin-left="0"
     fit-margin-right="0"
     fit-margin-bottom="0"
     inkscape:window-width="1918"
     inkscape:window-height="1031"
     inkscape:window-x="0"
     inkscape:window-y="24"
     inkscape:window-maximized="1" />
  <metadata
     id="metadata5">
    <rdf:RDF>
      <cc:Work
         rdf:about="">
        <dc:format>image/svg+xml</dc:format>
        <dc:type
           rdf:resource="http://purl.org/dc/dcmitype/StillImage" />
        <dc:title></dc:title>
      </cc:Work>
    </rdf:RDF>
  </metadata>
  <g
     inkscape:label="Vrstva 1"
     inkscape:groupmode="layer"
     id="layer1"
     transform="translate(2.1215185,-241.80031)">
    <g
       id="g896"
       transform="matrix(2.0656537,0,0,2.0656537,-126.16795,183.81254)">
      <path
         sodipodi:nodetypes="ccccc"
         inkscape:connector-curvature="0"
         id="path817"
         d="m 65.011905,48.85863 -4.960004,3.972808 H 75.90994 L 73.818998,48.81037 Z"
         style="opacity:1;fill:#000000;fill-opacity:0.22535209;stroke:none;stroke-width:0.96499997;stroke-linecap:butt;stroke-linejoin:round;stroke-miterlimit:4;stroke-dasharray:none;stroke-dashoffset:0;stroke-opacity:1;paint-order:normal" />
      <path
         inkscape:connector-curvature="0"
         id="path819"
         d="m 65.011905,48.85863 v -6.614583 h 8.882438 v 7.370534"
         style="opacity:1;fill:#000000;fill-opacity:0.22535209;stroke:none;stroke-width:0.96499997;stroke-linecap:butt;stroke-linejoin:round;stroke-miterlimit:4;stroke-dasharray:none;stroke-dashoffset:0;stroke-opacity:1;paint-order:normal" />
      <rect
         y="43.001011"
         x="65.512474"
         height="5.1961589"
         width="7.5314231"
         id="rect821"
         style="opacity:1;fill:#000000;fill-opacity:0.22535209;stroke:none;stroke-width:0.96499997;stroke-linecap:butt;stroke-linejoin:round;stroke-miterlimit:4;stroke-dasharray:none;stroke-dashoffset:0;stroke-opacity:1;paint-order:normal" />
      <path
         sodipodi:nodetypes="ccccc"
         inkscape:connector-curvature="0"
         id="rect823"
         d="m 65.082771,49.756321 8.031994,0.124024 0.47247,0.584682 -9.095052,-0.230329 z"
         style="opacity:1;fill:#000000;fill-opacity:0.22535209;stroke:none;stroke-width:0.96500003;stroke-linecap:butt;stroke-linejoin:round;stroke-miterlimit:4;stroke-dasharray:none;stroke-dashoffset:0;stroke-opacity:1;paint-order:normal" />
      <path
         style="opacity:1;fill:#000000;fill-opacity:0.22535209;stroke:none;stroke-width:0.96499997;stroke-linecap:butt;stroke-linejoin:round;stroke-miterlimit:4;stroke-dasharray:none;stroke-dashoffset:0;stroke-opacity:1;paint-order:normal"
         d="m 64.183543,50.417779 9.617531,0.11989 0.565737,0.565192 -10.890439,-0.222652 z"
         id="path826"
         inkscape:connector-curvature="0"
         sodipodi:nodetypes="ccccc" />
      <path
         sodipodi:nodetypes="ccccc"
         inkscape:connector-curvature="0"
         id="path830"
         d="m 67.469097,51.173734 c -0.05941,0.131319 -0.921664,0.977599 -0.921664,0.977599 l 3.753361,0.0146 -0.336635,-0.977602 z"
         style="opacity:1;fill:#000000;fill-opacity:0.22535209;stroke:none;stroke-width:0.96500003;stroke-linecap:butt;stroke-linejoin:round;stroke-miterlimit:4;stroke-dasharray:none;stroke-dashoffset:0;stroke-opacity:1;paint-order:normal" />
    </g>
    <path
       style="opacity:1;fill:#000000;fill-opacity:0.34507045;stroke:none;stroke-width:1.99335539;stroke-linecap:butt;stroke-linejoin:round;stroke-miterlimit:4;stroke-dasharray:none;stroke-dashoffset:0;stroke-opacity:1;paint-order:normal"
       d="m 26.416742,245.94622 a 4.7731585,4.7731585 0 0 0 -4.773695,4.7737 4.7731585,4.7731585 0 0 0 0.03711,0.53953 4.8540595,4.8540595 0 0 0 -0.684338,-0.0552 4.8540595,4.8540595 0 0 0 -4.853153,4.85442 4.8540595,4.8540595 0 0 0 4.853153,4.8545 4.8540595,4.8540595 0 0 0 1.595503,-0.27571 5.2585648,5.2585648 0 0 0 2.164507,1.32384 l 13.438123,-13.08188 a 3.5596438,3.5596438 0 0 0 -0.37036,-0.0231 3.5596438,3.5596438 0 0 0 -0.607439,0.0514 4.4495549,4.4495549 0 0 0 -3.761298,-2.07474 4.4495549,4.4495549 0 0 0 -3.073104,1.23408 4.7731585,4.7731585 0 0 0 -3.96506,-2.12346 z m 13.352266,3.49725 -14.362106,12.6782 a 5.2585648,5.2585648 0 0 0 0.929104,0.0854 5.2585648,5.2585648 0 0 0 4.003504,-1.85184 3.7214455,3.7214455 0 0 0 1.659577,0.39598 3.7214455,3.7214455 0 0 0 2.045324,-0.61511 4.3686534,4.3686534 0 0 0 2.48489,0.77663 4.3686534,4.3686534 0 0 0 2.18373,-0.59079 4.3686534,4.3686534 0 0 0 2.185003,0.59079 4.3686534,4.3686534 0 0 0 4.368742,-4.36879 4.3686534,4.3686534 0 0 0 -3.89073,-4.34052 3.5596438,3.5596438 0 0 0 -1.607038,-2.76045 z m 1.753131,3.59854 0.397274,0.8138 c -1.039572,0.50166 -1.597147,0.85836 -1.922282,1.09058 -0.325153,0.23218 -0.363664,0.38591 -0.726636,0.47417 -0.181506,0.0444 -0.359869,-0.0113 -0.474174,-0.0579 -0.114306,-0.0467 -0.219376,-0.10101 -0.383167,-0.17465 -0.327709,-0.1467 -0.875738,-0.36871 -1.908206,-0.65862 l 0.242215,-0.87279 c 1.069419,0.30054 1.677918,0.54554 2.038905,0.70741 0.147799,0.066 0.228354,0.10654 0.289613,0.13399 0.01738,-0.027 0.143302,-0.11069 0.39343,-0.28981 0.370323,-0.26457 0.977107,-0.64827 2.053009,-1.16743 z m -4.340544,2.57333 a 1.1423927,1.1423927 0 0 1 1.141852,1.14308 1.1423927,1.1423927 0 0 1 -1.141852,1.1419 1.1423927,1.1423927 0 0 1 -1.143124,-1.1419 1.1423927,1.1423927 0 0 1 1.143124,-1.14308 z m 3.631861,0.11772 a 1.1423927,1.1423927 0 0 1 1.143128,1.14188 1.1423927,1.1423927 0 0 1 -1.143128,1.14312 1.1423927,1.1423927 0 0 1 -1.141841,-1.14312 1.1423927,1.1423927 0 0 1 1.141841,-1.14188 z m -1.804397,2.37084 c 0.628386,0.0458 1.279277,0.4085 1.486575,1.09961 l -0.866309,0.25619 c -0.094,-0.31324 -0.302617,-0.42162 -0.688191,-0.44977 -0.385554,-0.0299 -0.898024,0.10403 -1.278962,0.34862 l -0.489537,-0.76125 c 0.546012,-0.3504 1.208045,-0.5392 1.836424,-0.49329 z"
       id="path832"
       inkscape:connector-curvature="0" />
    <path
       style="opacity:1;fill:#000000;fill-opacity:0.22535209;stroke:none;stroke-width:1.99335539;stroke-linecap:butt;stroke-linejoin:round;stroke-miterlimit:4;stroke-dasharray:none;stroke-dashoffset:0;stroke-opacity:1;paint-order:normal"
       d="m 17.701158,265.50137 23.512086,-23.70106 2.252065,1.90793 -24.412425,23.70584 z"
       id="path849"
       inkscape:connector-curvature="0"
       sodipodi:nodetypes="ccccc" />
    <g
       id="g904"
       transform="matrix(2.0656537,0,0,2.0656537,-125.7539,179.11982)">
      <path
         style="opacity:1;fill:#000000;fill-opacity:0.22535209;stroke:none;stroke-width:0.96499997;stroke-linecap:butt;stroke-linejoin:round;stroke-miterlimit:4;stroke-dasharray:none;stroke-dashoffset:0;stroke-opacity:1;paint-order:normal"
         d="m 93.457752,53.979137 3.7392,2.994979 H 85.242054 l 1.576298,-3.031361 z"
         id="path855"
         inkscape:connector-curvature="0"
         sodipodi:nodetypes="ccccc" />
      <path
         style="opacity:1;fill:#000000;fill-opacity:0.22535209;stroke:none;stroke-width:0.96499997;stroke-linecap:butt;stroke-linejoin:round;stroke-miterlimit:4;stroke-dasharray:none;stroke-dashoffset:0;stroke-opacity:1;paint-order:normal"
         d="m 93.457752,54.383216 v -5.390613 h -6.696201 v 4.965845"
         id="path857"
         inkscape:connector-curvature="0"
         sodipodi:nodetypes="cccc" />
      <rect
         transform="scale(-1,1)"
         style="opacity:1;fill:#000000;fill-opacity:0.22535209;stroke:none;stroke-width:0.96499997;stroke-linecap:butt;stroke-linejoin:round;stroke-miterlimit:4;stroke-dasharray:none;stroke-dashoffset:0;stroke-opacity:1;paint-order:normal"
         id="rect859"
         width="5.6777115"
         height="3.9172266"
         x="-93.080383"
         y="49.563255" />
      <path
         style="opacity:1;fill:#000000;fill-opacity:0.22535209;stroke:none;stroke-width:0.96499997;stroke-linecap:butt;stroke-linejoin:round;stroke-miterlimit:4;stroke-dasharray:none;stroke-dashoffset:0;stroke-opacity:1;paint-order:normal"
         d="m 93.404328,54.655879 -6.055076,0.0935 -0.356181,0.440774 6.856484,-0.173638 z"
         id="path861"
         inkscape:connector-curvature="0"
         sodipodi:nodetypes="ccccc" />
      <path
         sodipodi:nodetypes="ccccc"
         inkscape:connector-curvature="0"
         id="path863"
         d="m 94.082229,55.154532 -7.250365,0.09038 -0.426492,0.426081 8.209972,-0.16785 z"
         style="opacity:1;fill:#000000;fill-opacity:0.22535209;stroke:none;stroke-width:0.96499997;stroke-linecap:butt;stroke-linejoin:round;stroke-miterlimit:4;stroke-dasharray:none;stroke-dashoffset:0;stroke-opacity:1;paint-order:normal" />
      <path
         style="opacity:1;fill:#000000;fill-opacity:0.22535209;stroke:none;stroke-width:0.96499997;stroke-linecap:butt;stroke-linejoin:round;stroke-miterlimit:4;stroke-dasharray:none;stroke-dashoffset:0;stroke-opacity:1;paint-order:normal"
         d="m 91.60535,55.724423 c 0.04479,0.099 0.694814,0.736983 0.694814,0.736983 l -2.829545,0.01101 0.253779,-0.736984 z"
         id="path865"
         inkscape:connector-curvature="0"
         sodipodi:nodetypes="ccccc" />
    </g>
    <path
       style="opacity:1;fill:none;fill-opacity:0.22535209;stroke:#9a9a9a;stroke-width:0.96052885;stroke-linecap:butt;stroke-linejoin:round;stroke-miterlimit:4;stroke-dasharray:0.96052897, 0.96052897;stroke-dashoffset:0;stroke-opacity:1;paint-order:normal"
       d="m 28.664818,277.92956 c 8.721525,-0.053 16.340741,3.47011 23.211721,8.15767"
       id="path868"
       inkscape:connector-curvature="0"
       sodipodi:nodetypes="cc" />
    <g
       id="g909"
       transform="matrix(2.0656537,0,0,2.0656537,-125.7539,179.11982)">
      <rect
         y="39.03125"
         x="87.265251"
         height="6.3783469"
         width="3.8270099"
         id="rect882"
         style="opacity:1;fill:#000000;fill-opacity:0.22535209;stroke:none;stroke-width:0.46499997;stroke-linecap:butt;stroke-linejoin:round;stroke-miterlimit:4;stroke-dasharray:0.46499999, 0.46499999;stroke-dashoffset:0;stroke-opacity:1;paint-order:normal" />
      <rect
         y="39.33596"
         x="87.50547"
         height="5.1783471"
         width="3.3074603"
         id="rect884"
         style="opacity:1;fill:#000000;fill-opacity:0.22535209;stroke:none;stroke-width:0.46499997;stroke-linecap:butt;stroke-linejoin:round;stroke-miterlimit:4;stroke-dasharray:0.46499999, 0.46499999;stroke-dashoffset:0;stroke-opacity:1;paint-order:normal" />
      <circle
         r="0.2952939"
         cy="44.94894"
         cx="89.202377"
         id="path886"
         style="opacity:1;fill:#000000;fill-opacity:0.22535209;stroke:none;stroke-width:0.46499997;stroke-linecap:butt;stroke-linejoin:round;stroke-miterlimit:4;stroke-dasharray:0.46499999, 0.46499999;stroke-dashoffset:0;stroke-opacity:1;paint-order:normal" />
    </g>
    <path
       sodipodi:nodetypes="cc"
       inkscape:connector-curvature="0"
       id="path888"
       d="m 28.664818,277.80505 c 8.721525,0.0526 16.340741,-3.47011 23.211721,-8.15767"
       style="opacity:1;fill:none;fill-opacity:0.22535209;stroke:#9a9a9a;stroke-width:0.96052885;stroke-linecap:butt;stroke-linejoin:round;stroke-miterlimit:4;stroke-dasharray:0.96052897, 0.96052897;stroke-dashoffset:0;stroke-opacity:1;paint-order:normal" />
    <circle
       style="opacity:1;fill:#000000;fill-opacity:0.30281689;stroke:none;stroke-width:1.99335575;stroke-linecap:butt;stroke-linejoin:round;stroke-miterlimit:4;stroke-dasharray:none;stroke-dashoffset:0;stroke-opacity:1;paint-order:normal"
       id="path840"
       cx="41.062614"
       cy="257.24118"
       r="0.39544365" />
    <circle
       r="0.39544365"
       cy="257.24118"
       cx="37.401108"
       id="circle842"
       style="opacity:1;fill:#000000;fill-opacity:0.30281689;stroke:none;stroke-width:1.99335575;stroke-linecap:butt;stroke-linejoin:round;stroke-miterlimit:4;stroke-dasharray:none;stroke-dashoffset:0;stroke-opacity:1;paint-order:normal" />
    <path
       style="opacity:1;fill:#000000;fill-opacity:0.34507045;stroke:none;stroke-width:1.99335575;stroke-linecap:butt;stroke-linejoin:round;stroke-miterlimit:4;stroke-dasharray:none;stroke-dashoffset:0;stroke-opacity:1;paint-order:normal"
       d="m 38.934296,267.67275 c -1.004663,1.1e-4 -1.834881,0.80967 -1.834954,1.8083 a 0.41710856,0.41710856 0 0 0 0,0.0382 c 0.01434,0.15548 0.01326,0.32827 0.01415,0.50597 H 36.64061 v 3.47562 h 4.554839 v -3.47562 h -0.449457 c -2.82e-4,-0.16569 0.0079,-0.34535 0.02098,-0.51028 a 0.41710856,0.41710856 0 0 0 0,-0.0329 c -8.1e-5,-0.99865 -0.827084,-1.80824 -1.831756,-1.80833 z m 0,0.83475 c 0.562193,1e-4 0.999093,0.43408 0.99914,0.97355 l 0.0034,-0.0329 c -0.01362,0.16909 -0.02302,0.37069 -0.02302,0.57642 h -1.963325 c 8.9e-5,-0.18821 -0.002,-0.37739 -0.02098,-0.58279 l 0.0038,0.0382 c 4e-5,-0.5395 0.439083,-0.97352 1.001267,-0.97355 z m -0.393888,2.61098 h 0.753617 v 0.65654 h -0.152634 v 0.82937 H 38.69308 v -0.82937 h -0.152634 z"
       id="path846"
       inkscape:connector-curvature="0" />
    <path
       id="path854"
       d="m 38.934296,282.23405 c -1.004663,6e-5 -1.834881,0.80964 -1.834954,1.80825 a 0.41710856,0.41710856 0 0 0 0,0.0382 c 0.01434,0.15547 0.01326,0.32826 0.01415,0.50597 H 36.64061 v 3.47566 h 4.554844 v -3.47566 h -0.449462 c -2.82e-4,-0.16569 0.0079,-0.34532 0.02098,-0.51025 a 0.41710856,0.41710856 0 0 0 0,-0.0329 c -8.1e-5,-0.99868 -0.827084,-1.80822 -1.831756,-1.80829 z m 0,0.83477 c 0.562193,3e-5 0.999093,0.43405 0.99914,0.97348 l 0.0034,-0.0329 c -0.01362,0.16909 -0.02302,0.37065 -0.02302,0.5764 h -1.96329 c 8.3e-5,-0.18821 -0.002,-0.3774 -0.02098,-0.58283 l 0.0038,0.0382 c 4.3e-5,-0.53946 0.439085,-0.97349 1.001276,-0.97354 z m -0.393888,2.611 h 0.753617 v 0.65642 h -0.152634 v 0.82945 H 38.69308 v -0.82945 h -0.152634 z"
       style="opacity:1;fill:#000000;fill-opacity:0.34507045;stroke:none;stroke-width:1.99335575;stroke-linecap:butt;stroke-linejoin:round;stroke-miterlimit:4;stroke-dasharray:none;stroke-dashoffset:0;stroke-opacity:1;paint-order:normal"
       inkscape:connector-curvature="0" />
  </g>
</svg>
