<svg xmlns="http://www.w3.org/2000/svg" xmlns:xlink="http://www.w3.org/1999/xlink" height="216" width="216"><defs><path d="M0 0h216v216H0z" id="a"/><filter id="b" filterUnits="objectBoundingBox" height="1.019" width="1.009" y="-.005" x="-.005"><feOffset result="shadowOffsetOuter1" in="SourceAlpha" dy="2"/><feComposite result="shadowOffsetOuter1" operator="out" in2="SourceAlpha" in="shadowOffsetOuter1"/><feColorMatrix in="shadowOffsetOuter1" values="0 0 0 0 0 0 0 0 0 0 0 0 0 0 0 0 0 0 0.02 0"/></filter><path id="c" d="M128.128 197h-24.426l-12.036-22.892H75.618V197H54.024v-82.718h37.17c21.948 0 34.456 10.62 34.456 29.028 0 12.508-5.192 21.712-14.75 26.668zm-52.51-65.49v25.37h15.694c8.732 0 13.806-4.484 13.806-12.862 0-8.142-5.074-12.508-13.806-12.508zm63.838-17.228h65.254v17.228h-43.66v15.458h39.412v17.11l-39.412.118v15.576h44.84V197h-66.434z"/><filter id="d" filterUnits="objectBoundingBox" height="1.024" width="1.013" y="-.012" x="-.007"><feOffset result="shadowOffsetInner1" in="SourceAlpha" dy="2"/><feComposite result="shadowInnerInner1" k3="1" k2="-1" operator="arithmetic" in2="SourceAlpha" in="shadowOffsetInner1"/><feColorMatrix in="shadowInnerInner1" values="0 0 0 0 0 0 0 0 0 0 0 0 0 0 0 0 0 0 0.02 0"/></filter></defs><use xlink:href="#a" width="100%" height="100%" fill-rule="evenodd" filter="url(#b)"/><use xlink:href="#a" width="100%" height="100%" fill="#dd4b39" fill-rule="evenodd"/><path d="M.5.5h215v215H.5z" fill="none" stroke="#d74837"/><use xlink:href="#c" width="100%" height="100%" fill="#fff" fill-rule="evenodd"/><use xlink:href="#c" width="100%" height="100%" fill-rule="evenodd" filter="url(#d)"/></svg>