<svg xmlns="http://www.w3.org/2000/svg" width="291.564" height="207.905" viewBox="0 0 77.143 55.008"><g transform="translate(2.122 -241.8)"><g fill-opacity=".225"><path d="M8.124 284.738l-10.246 8.206h32.758l-4.32-8.306z"/><path d="M8.124 284.738v-13.664h18.348V286.3"/><path d="M9.157 272.638h15.557v10.733H9.157zm-.887 13.954l16.592.256.976 1.208-18.787-.476zm-1.857 1.366l19.867.248 1.168 1.167-22.496-.46zm6.787 1.562c-.123.271-1.904 2.02-1.904 2.02l7.753.03-.695-2.02z"/></g><path d="M26.417 245.946a4.773 4.773 0 0 0-4.774 4.774 4.773 4.773 0 0 0 .037.54 4.854 4.854 0 0 0-.684-.056 4.854 4.854 0 0 0-4.853 4.855 4.854 4.854 0 0 0 4.853 4.854 4.854 4.854 0 0 0 1.595-.276 5.259 5.259 0 0 0 2.165 1.324l13.438-13.082a3.56 3.56 0 0 0-.37-.023 3.56 3.56 0 0 0-.608.052 4.45 4.45 0 0 0-3.761-2.075 4.45 4.45 0 0 0-3.073 1.234 4.773 4.773 0 0 0-3.965-2.123zm13.352 3.497l-14.362 12.679a5.259 5.259 0 0 0 .929.085 5.259 5.259 0 0 0 4.004-1.852 3.721 3.721 0 0 0 1.66.396 3.721 3.721 0 0 0 2.044-.615 4.369 4.369 0 0 0 2.485.777 4.369 4.369 0 0 0 2.184-.591 4.369 4.369 0 0 0 2.185.59 4.369 4.369 0 0 0 4.369-4.368 4.369 4.369 0 0 0-3.891-4.34 3.56 3.56 0 0 0-1.607-2.761zm1.753 3.599l.397.814c-1.04.501-1.597.858-1.922 1.09-.325.233-.364.386-.727.475-.181.044-.36-.012-.474-.058-.114-.047-.22-.101-.383-.175-.328-.147-.876-.369-1.908-.659l.242-.872c1.07.3 1.678.545 2.04.707.147.066.227.107.289.134.017-.027.143-.11.393-.29.37-.264.977-.648 2.053-1.167zm-4.34 2.573a1.142 1.142 0 0 1 1.141 1.143 1.142 1.142 0 0 1-1.141 1.142 1.142 1.142 0 0 1-1.144-1.142 1.142 1.142 0 0 1 1.144-1.143zm3.631.118a1.142 1.142 0 0 1 1.144 1.142 1.142 1.142 0 0 1-1.144 1.143 1.142 1.142 0 0 1-1.141-1.143 1.142 1.142 0 0 1 1.141-1.142zm-1.804 2.37c.628.047 1.28.41 1.487 1.1l-.867.257c-.094-.314-.302-.422-.688-.45-.385-.03-.898.104-1.279.349l-.49-.762c.547-.35 1.209-.539 1.837-.493z" fill-opacity=".345"/><path d="M17.701 265.501l23.512-23.7 2.252 1.907-24.412 23.706z" fill-opacity=".225"/><g fill-opacity=".225"><path d="M67.297 290.622l7.724 6.187H50.327l3.256-6.262z"/><path d="M67.297 291.457v-11.135H53.465v10.257"/><path d="M66.517 281.5H54.788v8.091h11.73zm.67 10.52l-12.508.193-.735.91 14.163-.358zm1.4 1.03l-14.976.187-.881.88 16.959-.347zm-5.116 1.177c.093.205 1.435 1.523 1.435 1.523l-5.845.022.525-1.522z"/></g><path d="M28.665 277.93c8.721-.053 16.34 3.47 23.212 8.157" fill="none" stroke="#9a9a9a" stroke-width=".961" stroke-linejoin="round" stroke-dasharray=".96052897,.96052897"/><g transform="translate(-125.754 179.12) scale(2.06565)" fill-opacity=".225"><path d="M87.265 39.031h3.827v6.378h-3.827z"/><path d="M87.505 39.336h3.307v5.178h-3.307z"/><circle r=".295" cy="44.949" cx="89.202"/></g><path d="M28.665 277.805c8.721.053 16.34-3.47 23.212-8.158" fill="none" stroke="#9a9a9a" stroke-width=".961" stroke-linejoin="round" stroke-dasharray=".96052897,.96052897"/><circle cx="41.063" cy="257.241" r=".395" fill-opacity=".303"/><circle r=".395" cy="257.241" cx="37.401" fill-opacity=".303"/><path d="M38.934 267.673c-1.004 0-1.835.81-1.835 1.808a.417.417 0 0 0 0 .038c.015.156.014.329.014.506h-.472v3.476h4.554v-3.476h-.449a6.5 6.5 0 0 1 .021-.51.417.417 0 0 0 0-.033c0-.999-.827-1.808-1.832-1.808zm0 .835a.98.98 0 0 1 1 .973l.003-.033c-.014.17-.023.37-.023.577H37.95c0-.189-.002-.378-.02-.583l.003.038c0-.54.44-.974 1.002-.974zm-.394 2.61h.754v.657h-.153v.83h-.448v-.83h-.153zm.394 11.116c-1.004 0-1.835.81-1.835 1.808a.417.417 0 0 0 0 .039c.015.155.014.328.014.505h-.472v3.476h4.554v-3.476h-.449c0-.165.008-.345.021-.51a.417.417 0 0 0 0-.033c0-.998-.827-1.808-1.832-1.808zm0 .835a.98.98 0 0 1 1 .973l.003-.033c-.014.17-.023.371-.023.577H37.95c0-.188-.002-.378-.021-.583l.003.038c0-.54.44-.973 1.002-.973zm-.394 2.61h.754v.657h-.153v.83h-.448v-.83h-.153z" fill-opacity=".345"/></g></svg>