<svg xmlns="http://www.w3.org/2000/svg" viewBox="0 0 15.875 15.875" height="60" width="60"><g transform="rotate(.129) scale(.66146)" stroke-width=".4"><path d="M0 0h24v24H0z" fill="none"/><circle cx="6" cy="17" r="3" fill="#616161"/><path d="M11.203 10.047l-.113.014-.26.046.356 1.97.205-.038.58-.037.56.027.301.051.328-1.973-.351-.058-.116-.014-.687-.033h-.115zm3.19 2.574l.265.147.46.324.429.387.142.16 1.497-1.327-.188-.212-.082-.08-.508-.456-.088-.07-.554-.392-.096-.061-.313-.172zm-6.15-1.525l-.095.06-.548.4-.088.073-.502.463-.078.082-.125.144 1.515 1.305.082-.094.414-.384.473-.346.332-.19-.99-1.736z" style="line-height:normal;font-variant-ligatures:normal;font-variant-position:normal;font-variant-caps:normal;font-variant-numeric:normal;font-variant-alternates:normal;font-feature-settings:normal;text-indent:0;text-align:start;text-decoration-line:none;text-decoration-style:solid;text-decoration-color:#000;text-transform:none;text-orientation:mixed;white-space:normal;shape-padding:0;isolation:auto;mix-blend-mode:normal;solid-color:#000;solid-opacity:1" color="#000" font-weight="400" font-family="sans-serif" overflow="visible" fill="#616161"/><g fill="#616161"><path d="M8.817 7.768l4.95-4.95 1.415 1.414-4.95 4.95z"/><path d="M10.232 2.818l4.95 4.95-1.414 1.414-4.95-4.95z"/></g><g fill="#616161"><path d="M14.817 18.768l4.95-4.95 1.415 1.414-4.95 4.95z"/><path d="M16.232 13.818l4.95 4.95-1.414 1.414-4.95-4.95z"/></g></g></svg>