<svg xmlns="http://www.w3.org/2000/svg" viewBox="0 0 8.467 8.467" height="32" width="32"><path d="M2.233 1.852a.644.644 0 0 0-.646.646v2a2.646 2.646 0 0 0 2.646 2.646A2.646 2.646 0 0 0 6.88 4.498v-2a.644.644 0 0 0-.645-.646zm2.802.706a.528.528 0 0 1 .141 1.037v1.468a.514.514 0 1 1-.642.379l-1.256-.734a.527.527 0 0 1-.889-.386.528.528 0 0 1 .889-.387l1.244-.725a.528.528 0 0 1 .513-.653zm-.36.915l-1.243.725c.009.04.016.081.016.124a.57.57 0 0 1-.016.123l1.257.732a.525.525 0 0 1 .205-.113v-1.47a.536.536 0 0 1-.219-.12z" fill="#fafafa"/></svg>